<svg width="24" height="24" xmlns="http://www.w3.org/2000/svg" version="1.1">
 <g>
  <title>Layer 1</title>
  <ellipse fill="#ff56ff" stroke="#ffffff" cx="12" cy="12" id="svg_2" rx="12" ry="12" stroke-width="0"/>
  <g stroke="null">
   <g stroke="null" data-name="HOUSE" id="svg_4">
    <path stroke="null" fill="#ffffff" d="m18.53945,17.1097l-0.60754,0l0,-6.22278a0.21095,0.22224 0 0 0 -0.04219,-0.13557l-1.43235,-2.00018a0.21095,0.22224 0 0 0 -0.32275,0l-1.43235,2.00018c-0.08438,0.08001 -0.02531,0.53116 -0.04219,0.63561l-0.81849,0l0,-2.31576a0.21095,0.22224 0 0 0 -0.06539,-0.16224l-2.35209,-2.40688a0.21095,0.22224 0 0 0 -0.28056,0l-1.96184,2.00018l-0.91552,-1.11121a0.21095,0.22224 0 0 0 -0.15188,-0.06001a0.19829,0.20891 0 0 0 -0.15188,0.07334l-1.84159,2.22242a0.21095,0.22224 0 0 0 -0.05274,0.1489l0,7.33399l-0.60754,0a0.21095,0.22224 0 0 0 0,0.44448l13.0789,0a0.21095,0.22224 0 0 0 0,-0.44448zm-3.87937,-0.83341l-0.81849,0l0,-2.1113l0.81849,0l0,2.1113zm-0.81849,0.33336l0.81849,0l0,0.50004l-0.81849,0l0,-0.50004zm0.81849,-4.88933l0,2.1113l-0.81849,0l0,-2.1113l0.81849,0zm-3.3752,-4.75154l2.14747,2.19797l0,3.35808l-1.79729,-2.01574a0.21095,0.22224 0 0 0 -0.29322,0l-1.18343,1.33345l0,-2.06685c0.04219,-0.11779 -0.65184,-0.84008 -0.70246,-0.93564l1.82894,-1.87128zm-4.80755,10.14091l0,-7.24954l1.63697,-1.97351l1.63486,1.97351l0,2.44466c-0.06539,0.10668 -0.63285,0.63783 -0.61386,0.77785l0,4.02703l-2.65797,0zm3.47646,0l-0.40924,0l0,-3.94702l1.94496,-2.17797l1.94285,2.17797l0,3.94702l-3.47857,0zm5.11554,0l0,-6.14722l1.22562,-1.71349l1.22773,1.71349l0,6.14722l-2.45335,0z"/>
    <path stroke="null" fill="#ffffff" d="m8.52354,14.05387l-1.22773,0a0.1561,0.16446 0 0 0 -0.14767,0.16668l0,1.33345a0.1561,0.16446 0 0 0 0.15399,0.16668l1.22773,0a0.1561,0.16446 0 0 0 0.15188,-0.16668l0,-1.33345a0.1561,0.16446 0 0 0 -0.15821,-0.16668zm-0.15399,1.33345l-0.92185,0l0,-1.00009l0.92185,0l0,1.00009z"/>
    <path stroke="null" fill="#ffffff" d="m12.21095,10.38687l0.81849,0a0.1561,0.16446 0 0 0 0.15399,-0.16668l0,-0.88897a0.1561,0.16446 0 0 0 -0.15399,-0.16668l-0.81849,0a0.1561,0.16446 0 0 0 -0.15399,0.16668l0,0.88897a0.1561,0.16446 0 0 0 0.15399,0.16668zm0.15399,-0.88897l0.5105,0l0,0.55561l-0.51683,0l0.00633,-0.55561z"/>
    <path stroke="null" fill="#ffffff" d="m17.11343,11.83145l-0.61386,0a0.1561,0.16446 0 0 0 -0.15188,0.16668l0,3.11139a0.1561,0.16446 0 0 0 0.15188,0.16668l0.61386,0a0.1561,0.16446 0 0 0 0.16032,-0.16668l0,-3.11139a0.1561,0.16446 0 0 0 -0.16032,-0.16668zm-0.15188,3.11139l-0.30799,0l0,-2.77803l0.30799,0l0,2.77803z"/>
   </g>
  </g>
 </g>

</svg>