<svg width="32" height="32" xmlns="http://www.w3.org/2000/svg">

 <g>
  <title>Layer 1</title>
  <ellipse ry="16" rx="16" id="svg_1" cy="16.3375" cx="16" stroke="#ffffff" fill="#5206a3"/>

  <g stroke="null" id="svg_4">
   <path stroke="null" fill="#ffffff" d="m18.57188,11.11238a6.04476,6.53968 0 0 0 -5.46399,9.18744a1.56359,1.69161 0 0 0 2.26476,0.75205a6.0459,6.54091 0 0 1 6.51796,0a1.56421,1.69228 0 0 0 2.26596,-0.75476a6.04454,6.53943 0 0 0 -5.5847,-9.18473zm-3.95359,7.7958a1.07873,1.16705 0 1 1 1.07873,-1.16704a1.07873,1.16705 0 0 1 -1.07873,1.16704zm1.88236,-3.43602a1.07873,1.16705 0 1 1 -0.00057,-1.65046a1.07873,1.16705 0 0 1 0.00057,1.65046zm2.05089,-0.99046a1.07873,1.16705 0 1 1 1.07792,-1.16791a1.07872,1.16704 0 0 1 -1.07792,1.16791zm2.09786,0.86773a1.07873,1.16705 0 1 1 1.52555,-0.00185a1.07872,1.16704 0 0 1 -1.52555,0.00185zm1.99737,3.38338a1.07873,1.16705 0 1 1 1.07712,-1.1688a1.07873,1.16705 0 0 1 -1.07712,1.1688z" class="cls-1"/>
   <path stroke="null" fill="#ffffff" d="m11.86618,20.80325a2.10355,2.27578 0 0 0 -0.94612,-1.81958a1.82405,1.97339 0 0 0 -2.10434,0.10192a2.13019,2.3046 0 0 0 -0.8119,1.95161c0.04633,1.03251 1.65652,2.77312 1.97884,3.29671l0.00773,0.01255a0.15925,0.17229 0 0 0 0.27791,-0.01684l0.00656,-0.01341c0.27388,-0.55983 1.63769,-2.48134 1.59131,-3.51301l0.00001,0.00005z" class="cls-2"/>
   <path stroke="null" fill="#ffffff" d="m8.91014,18.51196a1.81981,1.96881 0 0 1 2.00992,-0.02943c0.01303,0.00899 0.02538,0.01893 0.03818,0.02822c0.00667,-0.0977 0.01269,-0.19576 0.01853,-0.29338c0.05976,-1.05984 0.08004,-2.17451 0.05923,-3.31285c-0.02081,-1.1799 -0.08484,-2.26456 -0.19635,-3.31516c-0.06243,-0.58764 -0.13553,-1.13084 -0.22356,-1.6596c-0.01494,-0.08889 -0.03042,-0.17837 -0.04642,-0.26727c-0.00907,-0.04906 -0.0176,-0.09756 -0.02667,-0.15009l-0.02402,-0.12584c-0.01867,-0.0964 -0.03735,-0.1928 -0.05762,-0.28805c-0.06883,-0.33423 -0.13019,-0.59226 -0.19955,-0.83644l0,-0.00058a0.34509,0.37334 0 0 0 -0.2273,-0.24533a0.34289,0.37096 0 0 0 -0.42792,0.24591c-0.06883,0.24418 -0.13072,0.50221 -0.19955,0.83528c-0.02028,0.09698 -0.03895,0.19396 -0.05763,0.29036l-0.02454,0.12815c-0.00853,0.04849 -0.01707,0.09698 -0.02561,0.14489c-0.01601,0.09005 -0.03201,0.17953 -0.04642,0.269c-0.08804,0.52934 -0.16167,1.07196 -0.2241,1.6596c-0.11098,1.05059 -0.17554,2.13525 -0.19581,3.31515c-0.02081,1.13834 -0.00107,2.25301 0.05869,3.31285c0.00585,0.0982 0.01187,0.1964 0.01854,0.29459z" class="cls-2"/>
  </g>
 </g>
</svg>