<svg width="24" height="24" xmlns="http://www.w3.org/2000/svg" version="1.1">
 <g>
  <title>Layer 1</title>
  <ellipse fill="#ffff00" stroke="#ffffff" cx="12" cy="12" id="svg_2" rx="12" ry="12" stroke-width="0"/>
  <path stroke="null" fill="#000000" d="m12.0058,7.81682l0,0c0.17051,0 0.28419,-0.15492 0.28419,-0.30988l0,-1.64228l0.34101,0c0.17051,0 0.28419,-0.15492 0.28419,-0.30988l0,0c0,-0.18592 -0.14208,-0.30988 -0.28419,-0.30988l-0.34101,0l0,-0.37184c0,-0.18592 -0.14208,-0.30988 -0.28419,-0.30988l0,0c-0.17051,0 -0.28419,0.15492 -0.28419,0.30988l0,0.37184l-0.34101,0c-0.17051,0 -0.28419,0.15492 -0.28419,0.30988l0,0c0,0.18592 0.14208,0.30988 0.28419,0.30988l0.34101,0l0,1.61131c0.00003,0.18592 0.11368,0.34084 0.28419,0.34084z"/>
  <polygon stroke="null" fill="#ffffff" points="18.00194549560547,15.09868335723877 18.00194549560547,19.436802864074707 6.0096940994262695,19.436802864074707 6.0096940994262695,15.09868335723877 12.005804061889648,12.588767051696777 "/>
  <path stroke="null" fill="#000000" d="m18.51346,14.72685l-6.30872,-2.63387c-0.11368,-0.06196 -0.25576,-0.06196 -0.36944,0l-6.33712,2.63387c-0.25576,0.09296 -0.39784,0.4338 -0.28419,0.71268c0.08525,0.27888 0.39784,0.4338 0.6536,0.30988l6.13822,-2.57188l6.13822,2.57188c0.25576,0.09296 0.53994,-0.031 0.6536,-0.30988l0,0c0.08528,-0.30988 -0.0284,-0.61972 -0.28416,-0.71268z"/>
  <path stroke="null" fill="#ffffff" d="m15.18859,11.38029l0,8.05651l-6.36555,0l0,-8.05651c1.25037,-1.3634 1.93239,-2.10708 3.18279,-3.47051l3.18276,3.47051z"/>
  <path stroke="null" fill="#000000" d="m15.92744,11.10141l-3.58063,-3.90431c-0.19893,-0.21692 -0.51152,-0.21692 -0.71045,0l-3.5522,3.90431c-0.19893,0.21692 -0.19893,0.55776 0,0.77468c0.19893,0.21692 0.51152,0.21692 0.71045,0l3.21119,-3.53247l3.21119,3.50148c0.19893,0.21692 0.51152,0.21692 0.71045,0c0.19893,-0.18592 0.19893,-0.52679 0,-0.74368z"/>
  <path stroke="null" fill="#000000" d="m12.0058,15.47052c-0.7957,0 -1.4493,0.71268 -1.4493,1.58032l0,2.38596l2.8986,0l0,-2.38596c0,-0.86763 -0.6536,-1.58032 -1.4493,-1.58032z"/>
  <circle stroke="null" fill="#ffffff" r="1.35443" cy="12.00001" cx="12.0058"/>
  <circle stroke="null" fill="#000000" r="0.96747" cy="12.00001" cx="12.0058"/>
  <g stroke="null"/>
  <g stroke="null"/>
  <g stroke="null"/>
  <g stroke="null"/>
  <g stroke="null"/>
  <g stroke="null"/>
  <g stroke="null"/>
  <g stroke="null"/>
  <g stroke="null"/>
  <g stroke="null"/>
  <g stroke="null"/>
  <g stroke="null"/>
  <g stroke="null"/>
  <g stroke="null"/>
  <g stroke="null"/>
 </g>

</svg>