<svg width="24" height="24" xmlns="http://www.w3.org/2000/svg" xmlns:undefined="http://www.inkscape.org/namespaces/inkscape" version="1.1">
 <g>
  <title>Layer 1</title>
  <ellipse fill="#00bfbf" stroke="#ffffff" cx="12" cy="12" id="svg_2" rx="12" ry="12" stroke-width="0"/>
  <g stroke="null"/>
  <g stroke="null"/>
  <g stroke="null"/>
  <g stroke="null"/>
  <g stroke="null"/>
  <g stroke="null"/>
  <g stroke="null"/>
  <g stroke="null"/>
  <g stroke="null"/>
  <g stroke="null"/>
  <g stroke="null"/>
  <g stroke="null"/>
  <g stroke="null"/>
  <g stroke="null"/>
  <g stroke="null"/>
  <g stroke="null">

   <metadata stroke="null" fill="#ffffff" id="svg_9">image/svg+xml</metadata>
   <g stroke="null" transform="translate(0 -288.533)" id="svg_7"  >
    <path stroke="null" clip-rule="nonzero" fill="#ffffff" fill-rule="nonzero" stroke-width="0.26458" stroke-linecap="round" stroke-miterlimit="4" stroke-dashoffset="0"  id="svg_8" d="m10.58715,294.70418l0,0.34067l0,1.35339l0,0.6217l-0.72421,0l0,-0.9173l-3.56709,0l0,0.33537l0,1.12275l0,0.34067l0,1.41703l0,4.17949l0,0.33537l0,1.42234l0,1.10683l2.94107,0l0.62603,0l1.35024,0l1.99958,0l0,-1.56283l0,-6.20628l1.95785,7.76911l2.53354,-0.74628l-2.51146,-9.96292l-1.97993,0.58325l0,-1.53235l-2.62561,0zm0.62603,0.67736l1.37356,0l0,0.33537l-1.37356,0l0,-0.33537zm0,1.0167l1.37356,0l0,8.40141l-1.37356,0l0,-7.77972l0,-0.6217zm3.54008,0.08482l2.18125,8.65858l-1.31955,0.38971l-2.18248,-8.65857l1.32078,-0.38972zm-7.82649,0.29558l2.30523,0l0,0.7821l-2.30523,0l0,-0.7821zm2.93617,0.9226l0.72421,0l0,7.09839l0,0.33537l0,0.55143l-0.72421,0l0,-0.43079l0,-7.5544zm-2.93617,0.53552l2.30523,0l0,0.40033l-2.30523,0l0,-0.40033zm0,1.08168l2.30523,0l0,4.17949l-2.30523,0l0,-4.17949zm0,4.85553l2.30523,0l0,0.40031l-2.30523,0l0,-0.40031zm0,1.08167l2.30523,0l0,0.43079l-2.30523,0l0,-0.43079zm4.28641,0.22003l1.37356,0l0,0.21076l-1.37356,0l0,-0.21076z"/>
   </g>
  </g>
 </g>
 <defs>
  <pattern id="svg_15" patternUnits="userSpaceOnUse" width="6" height="6" x="0" y="0"/>
  <pattern id="svg_14" patternUnits="userSpaceOnUse" width="6" height="6" x="0" y="0"/>
  <pattern id="svg_13" patternUnits="userSpaceOnUse" width="6" height="6" x="0" y="0"/>
  <pattern id="svg_12" patternUnits="userSpaceOnUse" width="6" height="6" x="0" y="0"/>
  <pattern id="svg_11" patternUnits="userSpaceOnUse" width="6" height="6" x="0" y="0"/>
 </defs>
</svg>