<svg width="24" height="24" xmlns="http://www.w3.org/2000/svg" version="1.1">
 <g>
  <title>Layer 1</title>
  <ellipse fill="#ff7f00" stroke="#ffffff" cx="12" cy="12" id="svg_2" rx="12" ry="12" stroke-width="0"/>
  <g stroke="null">

   <title fill="#ffffff" stroke="null">n</title>
   <path stroke="null" fill="#ffffff" d="m12.90414,12.39859l2.40059,0a0.25707,0.28438 0 0 1 0.25707,0.28438l0,1.59005a0.25723,0.28456 0 0 1 -0.25723,0.28456l-2.40043,0a0.25723,0.28456 0 0 1 -0.25723,-0.28456l0,-1.58987a0.25723,0.28456 0 0 1 0.25723,-0.28456z" class="cls-1"/>
   <path stroke="null" fill="#ffffff" d="m16.68022,11.3978c-0.05535,0 -0.1107,-0.00258 -0.16547,-0.00773l0,1.54043l0.00233,0l0,3.89426a0.53206,0.58858 0 0 0 0.00466,0.06961l-5.16097,0c-0.00233,-0.53432 0,-3.90328 -0.00233,-4.44212l-2.5933,0.03545l0,4.40667l-1.28704,0a0.53203,0.58855 0 0 0 0.00466,-0.06961l0,-3.89426l0.00233,0l0,-1.54043c-0.05477,0.00516 -0.11012,0.00773 -0.16547,0.00773a2.05031,2.26813 0 0 1 -0.79821,-0.17854l-0.00816,6.59679l10.9646,0l0.00058,-6.59614a2.05396,2.27216 0 0 1 -0.79821,0.17789z" class="cls-1"/>
   <path stroke="null" fill="#ffffff" d="m18.96985,9.68347l-1.05036,-3.49952l-11.83899,0l-1.05036,3.49952s-0.01501,0 0,0.00076a1.92429,2.12872 0 0 1 1.26861,0.56965a1.41311,1.56324 0 0 0 0.2619,0.22862a1.44431,1.59775 0 0 0 1.77947,-0.22862a1.86583,2.06405 0 0 1 1.09332,-0.57041l0.42287,0a1.93664,2.14238 0 0 1 1.11106,0.57041a1.47393,1.63051 0 0 0 2.06524,0a1.93664,2.14238 0 0 1 1.11106,-0.57041l0.42287,0a1.86583,2.06405 0 0 1 1.09332,0.57041a1.44431,1.59775 0 0 0 1.77947,0.22862a1.41311,1.56324 0 0 0 0.2619,-0.22862a1.92429,2.12872 0 0 1 1.26861,-0.56965c0.01501,-0.00076 0,-0.00076 0,-0.00076z" class="cls-2"/>
  </g>
 </g>

</svg>