<svg width="24" height="24" xmlns="http://www.w3.org/2000/svg" version="1.1">

 <g>
  <title>Layer 1</title>
  <ellipse ry="12" rx="12" id="svg_2" cy="12" cx="12" stroke="#ffffff" fill="#bf0000"/>
  <path fill="#ffffff" id="svg_1" d="m12,7l-4.5,2l0,1l9,0l0,-1l-4.5,-2zm-3.5,4l0,4l-1,1l0,1l9,0l0,-1l-1,-1l0,-4l-7,0zm1.49,1c0.1354,-0.0008 0.2653,0.0533 0.36,0.15l1.65,1.64l1.65,-1.64c0.1972,-0.1933 0.5137,-0.1902 0.7071,0.007c0.0899,0.0917 0.1411,0.2145 0.1429,0.343l0,3c0,0.2761 -0.2239,0.5 -0.5,0.5s-0.5,-0.2239 -0.5,-0.5l0,0l0,-1.79l-1.15,1.14c-0.1945,0.1961 -0.511,0.1974 -0.7071,0.0029c-0.001,-0.001 -0.0019,-0.0019 -0.0029,-0.0029l-1.14,-1.14l0,1.79c0,0.2761 -0.2239,0.5 -0.5,0.5s-0.5,-0.2239 -0.5,-0.5l0,0l0,-3c-0.0001,-0.2723 0.2178,-0.4946 0.49,-0.5z"/>
 </g>
</svg>