<svg width="24" height="24" xmlns="http://www.w3.org/2000/svg" version="1.1">

 <g>
  <title>Layer 1</title>
  <ellipse stroke-width="3" ry="12" rx="12" id="svg_2" cy="12" cx="12" stroke="#ffffff" fill="#bf0000"/>
  <path stroke-width="2" stroke="null" fill="#ffffff" id="svg_1" d="m12,6.25l-5.3125,2.3l0,1.15l10.625,0l0,-1.15l-5.3125,-2.3zm-4.13194,4.6l0,4.6l-1.18056,1.15l0,1.15l10.625,0l0,-1.15l-1.18056,-1.15l0,-4.6l-8.26389,0zm1.75903,1.15c0.15985,-0.00092 0.3132,0.06129 0.425,0.1725l1.94792,1.886l1.94792,-1.886c0.23281,-0.22229 0.60645,-0.21873 0.83477,0.00805c0.10613,0.10545 0.16658,0.24667 0.1687,0.39445l0,3.45c0,0.31751 -0.26433,0.575 -0.59028,0.575s-0.59028,-0.25748 -0.59028,-0.575l0,0l0,-2.0585l-1.35764,1.311c-0.22962,0.22551 -0.60326,0.22701 -0.83477,0.00333c-0.00118,-0.00115 -0.00224,-0.00218 -0.00342,-0.00333l-1.34583,-1.311l0,2.0585c0,0.31751 -0.26433,0.575 -0.59028,0.575s-0.59028,-0.25748 -0.59028,-0.575l0,0l0,-3.45c-0.00012,-0.31314 0.25712,-0.56879 0.57847,-0.575z"/>
 </g>
</svg>