<svg width="24" height="24" xmlns="http://www.w3.org/2000/svg" version="1.1">
 <g>
  <title>Layer 1</title>
  <ellipse fill="#007f3f" stroke="#ffffff" cx="12" cy="12" id="svg_2" rx="12" ry="12" stroke-width="0"/>
  <g stroke="null">
   <path stroke="null" fill="#ffffff" d="m18.1741,10.01163c0,-1.09829 -0.87175,-1.98862 -1.9471,-1.98862c-0.31031,0.00136 -0.61573,0.07932 -0.8901,0.22727c-0.02403,-0.76045 -0.63476,-1.36397 -1.37966,-1.36363c-0.07944,0.0117 -0.15766,0.03068 -0.23365,0.05682c-0.10114,-0.69988 -0.69829,-1.21227 -1.39079,-1.19317c-0.54152,0.00295 -1.03208,0.32659 -1.25727,0.82954c-0.20406,-0.14273 -0.44283,-0.22534 -0.68983,-0.23863c-0.44883,0.00932 -0.86451,0.24295 -1.11263,0.625c-0.17613,-0.05739 -0.36038,-0.0842 -0.54519,-0.07954c-0.92782,-0.00102 -1.68096,0.76625 -1.68196,1.71397c-0.00022,0.22273 0.04195,0.44341 0.12428,0.64966c-0.899,0.17704 -1.48736,1.06488 -1.31402,1.98306c0.12595,0.66716 0.63019,1.19283 1.28064,1.33511c0.27727,0.89124 1.20943,1.38408 2.08206,1.1009c0.29318,-0.09511 0.55465,-0.2717 0.75514,-0.51l0.13352,0c0.35738,-0.00102 0.7004,-0.14364 0.95686,-0.39772l0,4.35225l-1.79133,1.13636l5.56315,0l-1.78021,-1.13636l0,-1.13636c0.73689,-0.91886 1.6349,-1.68954 2.64806,-2.27271c0.2885,-0.05602 0.55732,-0.18943 0.77884,-0.38636l0,0l0,0c0.37596,-0.32909 0.58814,-0.81261 0.57857,-1.31817c0.00367,-0.06432 0.00367,-0.12886 0,-0.19318c0.67904,-0.32898 1.11218,-1.02783 1.11263,-1.79544zm-5.1626,5.11361l0,-2.5568l0.20027,0c0.20161,-0.0017 0.40133,-0.04011 0.58969,-0.11364c0.13708,0.51659 0.5038,0.93738 0.99024,1.13636c-0.65089,0.43738 -1.24859,0.95238 -1.78021,1.53408z"/>
  </g>
 </g>

</svg>