<svg width="24" height="24" xmlns="http://www.w3.org/2000/svg" version="1.1">
 <g>
  <title>Layer 1</title>
  <ellipse fill="#00bfbf" stroke="#ffffff" cx="12" cy="12" id="svg_2" rx="12" ry="12" stroke-width="0"/>
  <g>
   <path fill="#ffffff" d="m19,16a1,1 0 0 1 -1,1l-12,0a1,1 0 0 1 -1,-1l0,-6a1,1 0 0 1 1,-1l1.172,0a3,3 0 0 0 2.12,-0.879l0.83,-0.828a1,1 0 0 1 0.705,-0.293l2.344,0a1,1 0 0 1 0.707,0.293l0.828,0.828a3,3 0 0 0 2.122,0.879l1.172,0a1,1 0 0 1 1,1l0,6zm-13,-8a2,2 0 0 0 -2,2l0,6a2,2 0 0 0 2,2l12,0a2,2 0 0 0 2,-2l0,-6a2,2 0 0 0 -2,-2l-1.172,0a2,2 0 0 1 -1.414,-0.586l-0.828,-0.828a2,2 0 0 0 -1.414,-0.586l-2.344,0a2,2 0 0 0 -1.414,0.586l-0.828,0.828a2,2 0 0 1 -1.414,0.586l-1.172,0z"/>
   <path fill="#ffffff" d="m12,15a2.5,2.5 0 1 1 0,-5a2.5,2.5 0 0 1 0,5zm0,1a3.5,3.5 0 1 0 0,-7a3.5,3.5 0 0 0 0,7zm-5,-5.5a0.5,0.5 0 1 1 -1,0a0.5,0.5 0 0 1 1,0z"/>
  </g>
 </g>

</svg>